<?xml version="1.0" encoding="iso-8859-1"?>
<!-- Generator: Adobe Illustrator 19.0.0, SVG Export Plug-In . SVG Version: 6.00 Build 0)  -->
<svg version="1.1" id="Capa_1" xmlns="http://www.w3.org/2000/svg" xmlns:xlink="http://www.w3.org/1999/xlink" x="0px" y="0px"
	 viewBox="0 0 490 490" style="enable-background:new 0 0 490 490;" xml:space="preserve">
<g>
	<g>
		<g>
			<g>
				<path d="M245,30.625c49.656,0,90.055,40.047,90.055,89.272S294.656,209.17,245,209.17c-49.656,0-90.055-40.048-90.055-89.272
					S195.344,30.625,245,30.625 M245,0c-66.65,0-120.68,53.68-120.68,119.897S178.35,239.795,245,239.795
					c66.65,0,120.68-53.68,120.68-119.897S311.65,0,245,0L245,0z"/>
			</g>
		</g>
	</g>
	<g>
		<path d="M320.572,297.734c9.082,0.19,78.624,3.836,78.624,70.379v91.262H90.804v-91.262c0-65.348,65.677-70.095,78.343-70.379
			H320.572 M320.853,267.109H169.146c0,0-108.968,1.211-108.968,101.004c0,99.188,0,121.887,0,121.887h369.643
			c0,0,0-22.699,0-121.887C429.821,268.922,320.853,267.109,320.853,267.109L320.853,267.109z"/>
	</g>
</g>
<g>
</g>
<g>
</g>
<g>
</g>
<g>
</g>
<g>
</g>
<g>
</g>
<g>
</g>
<g>
</g>
<g>
</g>
<g>
</g>
<g>
</g>
<g>
</g>
<g>
</g>
<g>
</g>
<g>
</g>
</svg>
